<svg width="37" height="44" viewBox="0 0 37 44" fill="none" xmlns="http://www.w3.org/2000/svg">
<g filter="url(#filter0_d_38_143)">
<path d="M32.0738 12.2736C31.8672 12.4356 28.2195 14.5131 28.2195 19.1323C28.2195 24.4752 32.8611 26.3654 33 26.4122C32.9786 26.5275 32.2626 29.0009 30.5528 31.5212C29.0281 33.739 27.4358 35.9532 25.0135 35.9532C22.5912 35.9532 21.9678 34.5311 19.1715 34.5311C16.4464 34.5311 15.4775 36 13.2618 36C11.0461 36 9.50006 33.9478 7.72252 31.4275C5.66355 28.468 4 23.8704 4 19.5068C4 12.5077 8.50264 8.79568 12.934 8.79568C15.2887 8.79568 17.2514 10.3582 18.7298 10.3582C20.1368 10.3582 22.3312 8.70207 25.01 8.70207C26.0252 8.70207 29.6729 8.79568 32.0738 12.2736ZM23.7382 5.73897C24.8461 4.41044 25.6298 2.56706 25.6298 0.723672C25.6298 0.468047 25.6084 0.208821 25.5621 0C23.7596 0.0684068 21.6152 1.21332 20.3221 2.72907C19.3068 3.89559 18.3593 5.73897 18.3593 7.60756C18.3593 7.88839 18.4056 8.16922 18.427 8.25923C18.541 8.28083 18.7262 8.30603 18.9114 8.30603C20.5287 8.30603 22.5627 7.21152 23.7382 5.73897Z" fill="#303030"/>
</g>
<defs>
<filter id="filter0_d_38_143" x="0" y="0" width="37" height="44" filterUnits="userSpaceOnUse" color-interpolation-filters="sRGB">
<feFlood flood-opacity="0" result="BackgroundImageFix"/>
<feColorMatrix in="SourceAlpha" type="matrix" values="0 0 0 0 0 0 0 0 0 0 0 0 0 0 0 0 0 0 127 0" result="hardAlpha"/>
<feOffset dy="4"/>
<feGaussianBlur stdDeviation="2"/>
<feComposite in2="hardAlpha" operator="out"/>
<feColorMatrix type="matrix" values="0 0 0 0 0 0 0 0 0 0 0 0 0 0 0 0 0 0 0.25 0"/>
<feBlend mode="normal" in2="BackgroundImageFix" result="effect1_dropShadow_38_143"/>
<feBlend mode="normal" in="SourceGraphic" in2="effect1_dropShadow_38_143" result="shape"/>
</filter>
</defs>
</svg>
