<svg width="28" height="28" viewBox="0 0 28 28" fill="none" xmlns="http://www.w3.org/2000/svg">
<path fill-rule="evenodd" clip-rule="evenodd" d="M24.3212 4.5915C22.7724 3.01202 21.0482 2.52339 19.429 2.64193C17.8536 2.75726 16.4348 3.44066 15.3985 4.098C14.5813 4.61637 13.4182 4.61637 12.601 4.098C11.5647 3.44067 10.146 2.75728 8.57053 2.64195C6.95132 2.52341 5.22712 3.01204 3.6783 4.5915C1.84981 6.45617 1.27614 8.75803 1.5065 11.0864C1.73421 13.388 2.74376 15.7277 4.09022 17.8008C5.44028 19.8795 7.16484 21.7458 8.89497 23.1009C10.587 24.4262 12.4281 25.375 13.9998 25.375C15.5715 25.375 17.4125 24.4262 19.1046 23.1009C20.8347 21.7458 22.5593 19.8795 23.9093 17.8008C25.2558 15.7277 26.2653 13.388 26.493 11.0864C26.7234 8.75803 26.1497 6.45617 24.3212 4.5915ZM16.3359 5.57575C17.2523 4.99447 18.3865 4.47293 19.5568 4.38726C20.6832 4.3048 21.8973 4.6191 23.0717 5.81675C24.4755 7.2483 24.9403 9.00652 24.7515 10.9141C24.5602 12.8486 23.6931 14.9208 22.4417 16.8476C21.1939 18.7688 19.5994 20.4904 18.0255 21.7232C16.4136 22.9858 14.9657 23.625 13.9998 23.625C13.0339 23.625 11.586 22.9858 9.97406 21.7232C8.40017 20.4904 6.80564 18.7688 5.55785 16.8476C4.30646 14.9208 3.43939 12.8486 3.248 10.9141C3.05927 9.00652 3.52403 7.2483 4.9278 5.81676C6.1022 4.61912 7.31631 4.30482 8.44276 4.38728C9.613 4.47295 10.7472 4.99448 11.6636 5.57576C13.053 6.45712 14.9465 6.45712 16.3359 5.57575Z" fill="#808080"/>
</svg>
