<svg width="28" height="28" viewBox="0 0 28 28" fill="none" xmlns="http://www.w3.org/2000/svg">
<path d="M11.6667 19.9145C11.1834 19.9145 10.7917 20.3063 10.7917 20.7895C10.7917 21.2728 11.1834 21.6645 11.6667 21.6645H16.3333C16.8166 21.6645 17.2083 21.2728 17.2083 20.7895C17.2083 20.3063 16.8166 19.9145 16.3333 19.9145H11.6667Z" fill="#808080"/>
<path fill-rule="evenodd" clip-rule="evenodd" d="M14.2459 1.46276C14.082 1.45675 13.918 1.45675 13.7541 1.46276C12.6721 1.50245 11.6979 1.87036 10.6297 2.48279C9.5887 3.07961 8.39025 3.95034 6.86964 5.05514L6.78698 5.1152C5.26635 6.21999 4.06788 7.09072 3.17859 7.89632C2.26604 8.723 1.61508 9.53588 1.24299 10.5526C1.18663 10.7066 1.13593 10.8626 1.091 11.0204C0.79441 12.0616 0.84325 13.1019 1.09561 14.3071C1.34154 15.4815 1.79932 16.8904 2.38016 18.678L2.41173 18.7752C2.99254 20.5628 3.45031 21.9716 3.94167 23.0663C4.4459 24.1897 5.01783 25.06 5.86981 25.728C5.99887 25.8293 6.1316 25.9257 6.26773 26.0172C7.16637 26.621 8.1708 26.896 9.39498 27.0284C10.588 27.1574 12.0693 27.1574 13.9489 27.1574H14.0511C15.9307 27.1574 17.4121 27.1574 18.605 27.0284C19.8292 26.896 20.8336 26.621 21.7323 26.0172C21.8684 25.9257 22.0011 25.8292 22.1302 25.728C22.9822 25.06 23.5541 24.1897 24.0583 23.0663C24.5497 21.9716 25.0075 20.5627 25.5883 18.7751L25.6199 18.6779C26.2007 16.8905 26.6585 15.4815 26.9044 14.3071C27.1568 13.1019 27.2056 12.0616 26.909 11.0204C26.8641 10.8627 26.8134 10.7066 26.757 10.5526C26.3849 9.53588 25.734 8.723 24.8214 7.89632C23.9321 7.09071 22.7337 6.21999 21.213 5.11519L21.1303 5.05512C19.6097 3.95033 18.4113 3.07961 17.3703 2.48279C16.3021 1.87036 15.3279 1.50245 14.2459 1.46276ZM13.8182 3.21159C13.9394 3.20714 14.0606 3.20714 14.1818 3.21159C14.8765 3.23707 15.5683 3.46687 16.4999 4.00097C17.4493 4.54529 18.5721 5.35954 20.1431 6.50096C21.7141 7.64238 22.8355 8.45855 23.6465 9.19328C24.4424 9.91423 24.8747 10.5012 25.1136 11.154C25.1553 11.2679 25.1927 11.3832 25.226 11.4998C25.4164 12.1683 25.4116 12.8974 25.1916 13.9484C24.9673 15.0195 24.5398 16.3389 23.9397 18.1858C23.3396 20.0327 22.9099 21.3513 22.4618 22.3497C22.0221 23.3294 21.5974 23.922 21.0504 24.3509C20.955 24.4257 20.8569 24.497 20.7563 24.5646C20.1793 24.9523 19.4845 25.1731 18.4168 25.2886C17.3288 25.4062 15.9419 25.4074 14 25.4074C12.0581 25.4074 10.6712 25.4062 9.58317 25.2886C8.51556 25.1731 7.82074 24.9523 7.24376 24.5646C7.14314 24.497 7.04504 24.4257 6.94965 24.3509C6.40262 23.922 5.97795 23.3294 5.53822 22.3497C5.09008 21.3513 4.66037 20.0326 4.06029 18.1858C3.46021 16.3389 3.03276 15.0195 2.80846 13.9484C2.58838 12.8974 2.58363 12.1683 2.77406 11.4998C2.80726 11.3832 2.84474 11.2679 2.8864 11.154C3.1253 10.5012 3.55766 9.91423 4.3535 9.19328C5.16455 8.45855 6.2859 7.64238 7.85692 6.50096C9.42795 5.35954 10.5507 4.54529 11.5001 4.00097C12.4317 3.46687 13.1236 3.23707 13.8182 3.21159Z" fill="#808080"/>
</svg>
