<svg width="12" height="12" viewBox="0 0 12 12" fill="none" xmlns="http://www.w3.org/2000/svg">
<path d="M7.84417 1.9351C6.8338 1.35901 6.04898 0.911518 5.41159 0.62122C4.77182 0.329833 4.21647 0.165279 3.67646 0.221331C2.81942 0.310291 2.03921 0.754361 1.53076 1.44549C1.2096 1.88203 1.07588 2.44233 1.01144 3.13599C0.94726 3.82688 0.947263 4.72233 0.947266 5.87394V5.92193C0.947263 7.07354 0.94726 7.969 1.01144 8.65988C1.07588 9.35355 1.2096 9.91384 1.53076 10.3504C2.03921 11.0415 2.81942 11.4856 3.67646 11.5745C4.21647 11.6306 4.77182 11.466 5.41159 11.1747C6.04898 10.8844 6.83379 10.4369 7.84415 9.86079L7.88516 9.8374C8.89546 9.26135 9.68031 8.81386 10.2536 8.41382C10.8286 8.01264 11.2524 7.61894 11.4747 7.126C11.827 6.34441 11.827 5.45147 11.4747 4.66988C11.2524 4.17694 10.8286 3.78323 10.2536 3.38205C9.6803 2.98202 8.89546 2.53452 7.88516 1.95847L7.84417 1.9351Z" fill="#555555"/>
</svg>
