<svg width="28" height="28" viewBox="0 0 28 28" fill="none" xmlns="http://www.w3.org/2000/svg">
<path fill-rule="evenodd" clip-rule="evenodd" d="M13.9999 1.45825C10.9393 1.45825 8.45825 3.93934 8.45825 6.99992C8.45825 10.0605 10.9393 12.5416 13.9999 12.5416C17.0605 12.5416 19.5416 10.0605 19.5416 6.99992C19.5416 3.93934 17.0605 1.45825 13.9999 1.45825ZM10.2083 6.99992C10.2083 4.90584 11.9058 3.20825 13.9999 3.20825C16.094 3.20825 17.7916 4.90584 17.7916 6.99992C17.7916 9.094 16.094 10.7916 13.9999 10.7916C11.9058 10.7916 10.2083 9.094 10.2083 6.99992Z" fill="#808080"/>
<path fill-rule="evenodd" clip-rule="evenodd" d="M10.4999 14.2916C7.43934 14.2916 4.95825 16.7727 4.95825 19.8333C4.95825 22.8938 7.43934 25.3749 10.4999 25.3749H17.4999C20.5605 25.3749 23.0416 22.8938 23.0416 19.8333C23.0416 16.7727 20.5605 14.2916 17.4999 14.2916H10.4999ZM6.70825 19.8333C6.70825 17.7392 8.40584 16.0416 10.4999 16.0416H17.4999C19.594 16.0416 21.2916 17.7392 21.2916 19.8333C21.2916 21.9273 19.594 23.6249 17.4999 23.6249H10.4999C8.40584 23.6249 6.70825 21.9273 6.70825 19.8333Z" fill="#808080"/>
</svg>
